<svg width="250" height="250" viewBox="0 0 250 250" fill="none" xmlns="http://www.w3.org/2000/svg">
<g clip-path="url(#clip0_958_2423)">
<rect width="250" height="250" fill="url(#paint0_linear_958_2423)"/>
<path d="M155.728 116.605L150.102 112.917L149.165 127.389C149.165 127.389 147.828 144.561 142.99 154.121C140.18 159.673 133.89 167.202 133.89 167.202C133.89 167.202 132.752 168.908 131.046 168.34C129.218 167.73 128.202 161.514 128.202 161.514C128.202 161.514 125.217 142.839 123.083 126.441C119.748 100.805 118.302 58 118.302 58H112.277C112.277 58 104.805 128.168 86.0262 168.242C78.9703 183.3 71.8947 193.934 71.8947 193.934C71.8947 193.934 62.0695 209.859 55.9694 209.859C49.6168 209.859 44.0255 193.934 44.0255 193.934C44.0255 193.934 38.3379 179.715 32.6503 178.008C26.9626 176.302 19 181.421 19 181.421L19.5688 181.99C19.5688 181.99 26.9626 177.44 32.0815 179.146C37.2003 180.852 42.3192 193.934 42.3192 193.934C42.3192 193.934 47.8077 210.733 55.4007 210.997C62.2258 211.233 70.1884 199.053 70.1884 199.053C70.1884 199.053 79.1454 185.82 86.0262 171.654C103.55 135.579 111.708 72.219 111.708 72.219C111.708 72.219 113.885 106.989 116.827 129.095C118.677 142.997 121.377 154.689 121.377 154.689C121.377 154.689 124.725 169.505 127.602 170.701C129.969 171.684 133.89 167.771 133.89 167.771C133.89 167.771 141.135 159.8 144.127 152.983C148.506 143.01 149.165 132.508 149.165 132.508V151.277C149.165 151.277 149.927 156.396 153.853 156.396C157.778 156.396 160.053 152.983 160.053 152.983C160.053 152.983 162.091 150.887 164.034 146.158C166.604 139.904 167.915 126.441 167.915 126.441C167.915 126.441 167.161 138.716 166.978 146.158C166.795 153.6 167.915 163.789 167.915 163.789C167.915 163.789 168.838 167.438 170.728 168.242C172.749 169.102 174.84 166.065 174.84 166.065C174.84 166.065 194.747 130.359 201.003 125.683C207.26 121.006 213.516 122.839 213.516 122.839V122.27C213.516 122.27 208.652 119.995 201.572 123.982C194.492 127.969 174.84 163.789 174.84 163.789L173.54 165.783C173.54 165.783 172.46 152.302 172.603 143.653C172.826 130.132 176.353 109.229 176.353 109.229L170.728 105.54L167.915 120.564C167.915 120.564 164.446 140.262 162.896 144.452C161.346 148.642 159.484 151.277 156.665 152.259C155.628 152.621 153.853 152.259 153.853 152.259L155.728 116.605Z" fill="white" stroke="white" stroke-width="2.27504" stroke-linejoin="round"/>
<path d="M102.039 119.683V123.976L121.377 103.501L102.039 119.683Z" fill="white" stroke="white" stroke-width="1.13752" stroke-linejoin="round"/>
</g>
<defs>
<linearGradient id="paint0_linear_958_2423" x1="-2.75059e-07" y1="136.5" x2="250" y2="135" gradientUnits="userSpaceOnUse">
<stop stop-color="#2D388A"/>
<stop offset="1" stop-color="#00AEEF"/>
</linearGradient>
<clipPath id="clip0_958_2423">
<rect width="250" height="250" rx="30" fill="white"/>
</clipPath>
</defs>
</svg>
