<svg width="173" height="137" viewBox="0 0 173 137" fill="none" xmlns="http://www.w3.org/2000/svg">
<path d="M121.198 52.5202L116.253 49.2778L115.429 62C115.429 62 114.253 77.0958 110 85.5C107.53 90.3814 102 97 102 97C102 97 101 98.5 99.5 98C97.8931 97.4644 97 92 97 92C97 92 94.3757 75.5825 92.5 61.1667C89.5676 38.6299 88.2967 1 88.2967 1H83C83 1 76.4314 62.6847 59.9231 97.9141C53.7202 111.151 47.5 120.5 47.5 120.5C47.5 120.5 38.8626 134.5 33.5 134.5C27.9154 134.5 23 120.5 23 120.5C23 120.5 18 108 13 106.5C8 105 1 109.5 1 109.5L1.5 110C1.5 110 8 106 12.5 107.5C17 109 21.5 120.5 21.5 120.5C21.5 120.5 26.325 135.268 33 135.5C39 135.708 46 125 46 125C46 125 53.8741 113.367 59.9231 100.914C75.3282 69.2002 82.5 13.5 82.5 13.5C82.5 13.5 84.4138 44.0662 87 63.5C88.6264 75.7212 91 86 91 86C91 86 93.9429 99.0243 96.4725 100.076C98.553 100.94 102 97.5 102 97.5C102 97.5 108.369 90.4924 111 84.5C114.849 75.7325 115.429 66.5 115.429 66.5V83C115.429 83 116.099 87.5 119.549 87.5C123 87.5 125 84.5 125 84.5C125 84.5 126.792 82.6575 128.5 78.5C130.759 73.002 131.912 61.1667 131.912 61.1667C131.912 61.1667 131.249 71.9577 131.088 78.5C130.927 85.0423 131.912 94 131.912 94C131.912 94 132.723 97.2071 134.385 97.9141C136.162 98.6702 138 96 138 96C138 96 155.5 64.6112 161 60.5C166.5 56.3888 172 58 172 58V57.5C172 57.5 167.724 55.5 161.5 59.0051C155.276 62.5101 138 94 138 94L136.857 95.7525C136.857 95.7525 135.908 83.9012 136.033 76.298C136.229 64.4114 139.33 46.0354 139.33 46.0354L134.385 42.7929L131.912 56C131.912 56 128.863 73.3166 127.5 77C126.137 80.6834 124.5 83 122.022 83.8636C121.11 84.1814 119.549 83.8636 119.549 83.8636L121.198 52.5202Z" fill="black" stroke="black" stroke-width="2" stroke-linejoin="round"/>
<path d="M74 55.2258V59L91 41L74 55.2258Z" fill="black" stroke="black" stroke-linejoin="round"/>
</svg>
